<?xml version="1.0" encoding="utf-8"?>
<!-- Generator: Adobe Illustrator 20.1.0, SVG Export Plug-In . SVG Version: 6.00 Build 0)  -->
<svg version="1.1" id="Layer_1" xmlns="http://www.w3.org/2000/svg" xmlns:xlink="http://www.w3.org/1999/xlink" x="0px" y="0px"
	 viewBox="0 0 100 100" style="enable-background:new 0 0 100 100;" xml:space="preserve">
<g>
	<path d="M100,82.6l-9.9-10.9v6.6H81c-3.3,3.4-7.3,6.7-11.9,8.8h20.9v6.6L100,82.6z"/>
	<path d="M86.3,54.8c0-17.8-14.5-32.2-32.3-32.2c-10.1,0-19,4.6-24.9,11.8l0,0c-2,2.6-3.8,5.4-4.9,8.3c-0.1,0.2-0.2,0.4-0.2,0.6
		c-0.2,0.5-0.3,0.9-0.5,1.3c-1.1,3.2-1.6,6.6-1.6,10.2c0,4,0.8,7.8,2.1,11.4l-6,2.6l14.4,5.7L38,60.1l-5.8,2.5
		c-0.9-2.5-1.4-5.2-1.4-7.8c0-12.8,10.5-23.2,23.3-23.2s23.3,10.5,23.3,23.3S66.9,78.2,54.1,78.2H0l4.2,4.2L0,86.9h54.1
		C71.8,86.9,86.3,72.6,86.3,54.8z"/>
	<path d="M21.4,40.5c0.2,0.2,0.5,0.3,0.6,0.5c1.2-2.7,2.7-5.3,4.6-7.7c-0.2-0.2-0.4-0.3-0.6-0.5c-1.4-1.3-2.3-3.2-2.3-5.3
		c0-4,3.3-7.3,7.3-7.3c0.6,0,1.2,0.1,1.8,0.2l-2.8,5.6l6.2-2.1l8.5-2.9l-0.2-0.6L39.6,6.4l-2.9,5.9c-1.9-0.7-3.8-1.1-5.8-1.1
		c-9,0-16.3,7.3-16.3,16.2C14.8,32.8,17.4,37.6,21.4,40.5z"/>
</g>
</svg>
